<svg width="512" height="512" viewBox="0 0 512 512" fill="none" xmlns="http://www.w3.org/2000/svg">
<path d="M219.358 283.9C219.358 256.646 197.185 234.472 169.93 234.472C142.675 234.472 120.501 256.646 120.501 283.9H150.501C150.501 273.188 159.217 264.472 169.93 264.472C180.642 264.472 189.358 273.188 189.358 283.9H219.358Z" fill="#4F5962"/>
<path d="M342.07 234.471C314.816 234.471 292.643 256.645 292.643 283.899H322.643C322.643 273.187 331.358 264.471 342.07 264.471C352.783 264.471 361.499 273.187 361.499 283.899H391.499C391.499 256.645 369.326 234.471 342.07 234.471V234.471Z" fill="#4F5962"/>
<path d="M256 371.68C237.033 371.68 219.249 361.509 209.586 345.135L183.749 360.379C198.781 385.854 226.466 401.679 255.999 401.679C285.531 401.679 313.216 385.854 328.248 360.379L302.411 345.134C292.75 361.508 274.965 371.68 256 371.68V371.68Z" fill="#F6B186"/>
<path d="M492.481 230.768C482.927 221.225 470.929 214.915 457.906 212.444C429.783 125.537 348.2 65.6997 256 65.6997H245.943C221.792 65.6997 202.143 46.0502 202.143 21.8999H172.143C172.143 38.2881 177.519 53.4399 186.591 65.6997H177.086C152.935 65.6997 133.287 46.0502 133.287 21.8999H103.287C103.287 54.4953 124.535 82.2033 153.9 91.9476C107.457 117.481 71.0535 160.036 54.0946 212.444C41.0718 214.915 29.071 221.227 19.5088 230.779C6.92827 243.373 0 260.107 0 277.9C0 295.474 6.77953 312.055 19.0909 324.589C28.7128 334.384 40.8644 340.848 54.0946 343.357C82.2164 430.264 163.799 490.1 256 490.1C348.201 490.1 429.783 430.264 457.905 343.357C471.136 340.848 483.287 334.384 492.909 324.589C505.22 312.055 512 295.474 512 277.9C512 260.107 505.072 243.373 492.481 230.768V230.768ZM446.087 314.521L434.83 314.735L431.89 325.603C410.475 404.792 338.147 460.099 255.999 460.099C173.851 460.099 101.524 404.793 80.1097 325.603L77.1702 314.735L65.9132 314.521C46.1099 314.147 29.9989 297.719 29.9989 277.9C29.9989 268.114 33.8106 258.909 40.7197 251.992C47.4577 245.261 56.4047 241.455 65.9102 241.277L77.1692 241.066L80.1087 230.195C101.524 151.007 173.852 95.7006 256 95.7006C283.113 95.7006 305.171 117.758 305.171 144.871C305.171 171.984 283.113 194.043 256 194.043C228.887 194.043 206.829 171.985 206.829 144.872H176.829C176.829 188.528 212.345 224.043 256 224.043C299.655 224.043 335.171 188.528 335.171 144.872C335.171 132.449 332.287 120.69 327.165 110.215C377.48 131.617 416.998 175.128 431.89 230.196L434.83 241.067L446.089 241.278C455.595 241.456 464.541 245.262 471.268 251.981C478.189 258.91 482.001 268.115 482.001 277.901C482 297.72 465.889 314.148 446.087 314.521V314.521Z" fill="#4F5962"/>
<path d="M50 0C40.111 0 30.444 2.93245 22.2215 8.42652C13.9991 13.9206 7.59043 21.7295 3.80605 30.8658C0.0216641 40.0021 -0.968503 50.0555 0.960758 59.7545C2.89002 69.4536 7.65206 78.3627 14.6447 85.3553C21.6373 92.348 30.5465 97.11 40.2455 99.0393C49.9446 100.969 59.9979 99.9784 69.1342 96.194C78.2705 92.4096 86.0794 86.001 91.5735 77.7785C97.0676 69.5561 100 59.8891 100 50C99.9851 36.7437 94.7125 24.0347 85.3389 14.6611C75.9653 5.28751 63.2563 0.0148882 50 0V0ZM50 97.2656C40.6518 97.2656 31.5134 94.4935 23.7406 89.2999C15.9679 84.1063 9.9097 76.7244 6.33228 68.0878C2.75486 59.4511 1.81884 49.9476 3.64259 40.7789C5.46635 31.6103 9.96796 23.1884 16.5782 16.5782C23.1884 9.96794 31.6103 5.46633 40.779 3.64257C49.9476 1.81882 59.4511 2.75483 68.0878 6.33226C76.7245 9.90968 84.1063 15.9678 89.3 23.7406C94.4936 31.5134 97.2656 40.6517 97.2656 50C97.2514 62.5312 92.267 74.5452 83.4061 83.4061C74.5452 92.267 62.5313 97.2514 50 97.2656ZM80.1367 77.5391C80.2651 77.6646 80.3675 77.8143 80.438 77.9794C80.5085 78.1445 80.5459 78.3219 80.5478 78.5015C80.5498 78.681 80.5163 78.8592 80.4494 79.0259C80.3825 79.1925 80.2834 79.3443 80.1578 79.4727C79.3156 80.332 78.4281 81.168 77.5203 81.9508C77.2452 82.1837 76.8892 82.2985 76.5298 82.2703C76.1704 82.242 75.8368 82.0729 75.6014 81.7999C75.366 81.5268 75.2481 81.1719 75.2731 80.8123C75.2982 80.4526 75.4642 80.1175 75.7352 79.8797C76.5844 79.1477 77.4141 78.3672 78.2031 77.5617C78.3286 77.4332 78.4781 77.3306 78.6432 77.2599C78.8083 77.1891 78.9857 77.1516 79.1653 77.1495C79.3448 77.1474 79.5231 77.1808 79.6898 77.2476C79.8565 77.3144 80.0084 77.4135 80.1367 77.5391V77.5391ZM92.1875 50C92.1877 57.2885 90.2969 64.4523 86.7 70.7914C86.5208 71.1067 86.2237 71.3378 85.874 71.434C85.5244 71.5302 85.1508 71.4835 84.8356 71.3043C84.5203 71.1251 84.2892 70.8279 84.193 70.4783C84.0968 70.1286 84.1435 69.7551 84.3227 69.4398C88.9603 61.2473 90.5149 51.6663 88.7054 42.4277C86.8959 33.1892 81.8418 24.9025 74.4562 19.0649C67.0705 13.2273 57.8405 10.2238 48.4339 10.5971C39.0272 10.9704 30.0642 14.6958 23.1644 21.1003C16.2646 27.5048 11.883 36.166 10.8113 45.5189C9.73963 54.8717 12.0485 64.2995 17.3208 72.0987C22.5931 79.898 30.481 85.5543 39.5595 88.0457C48.6379 90.5371 58.308 89.6993 66.8227 85.6836C67.1504 85.5282 67.5264 85.5093 67.868 85.6312C68.0371 85.6915 68.1927 85.7845 68.3259 85.905C68.4591 86.0254 68.5672 86.1709 68.6442 86.3332C68.7211 86.4955 68.7653 86.6713 68.7743 86.8506C68.7833 87.03 68.7569 87.2093 68.6966 87.3785C68.6363 87.5476 68.5432 87.7032 68.4228 87.8364C68.3023 87.9696 68.1568 88.0777 67.9946 88.1547C62.3721 90.824 56.2239 92.2019 50 92.1875C41.6561 92.1875 33.4996 89.7132 26.5619 85.0776C19.6242 80.442 14.2169 73.8532 11.0239 66.1445C7.83078 58.4357 6.99533 49.9532 8.62314 41.7696C10.251 33.5861 14.2689 26.069 20.169 20.1689C26.069 14.2689 33.5861 10.2509 41.7697 8.62312C49.9532 6.99531 58.4357 7.83076 66.1445 11.0238C73.8532 14.2169 80.442 19.6242 85.0776 26.5619C89.7133 33.4996 92.1875 41.6561 92.1875 50V50ZM31.243 43.1609L26.686 47.7188L44.9461 65.9797L73.3141 37.6117L69.7203 34.018L45.9133 57.8305C45.6521 58.0777 45.3062 58.2155 44.9465 58.2155C44.5869 58.2155 44.2409 58.0777 43.9797 57.8305L35.7508 49.6016C35.4944 49.3452 35.3503 48.9974 35.3503 48.6348C35.3503 48.2721 35.4944 47.9244 35.7508 47.668C36.0072 47.4116 36.355 47.2675 36.7176 47.2675C37.0802 47.2675 37.428 47.4116 37.6844 47.668L44.95 54.9336L68.7571 31.1203C68.884 30.9932 69.0347 30.8924 69.2006 30.8237C69.3664 30.7549 69.5443 30.7195 69.7239 30.7195C69.9034 30.7195 70.0813 30.7549 70.2471 30.8237C70.413 30.8924 70.5637 30.9932 70.6906 31.1203L76.2141 36.6445C76.3411 36.7714 76.442 36.9221 76.5107 37.088C76.5795 37.2539 76.6149 37.4317 76.6149 37.6113C76.6149 37.7909 76.5795 37.9687 76.5107 38.1346C76.442 38.3005 76.3411 38.4512 76.2141 38.5781L45.9133 68.8797C45.7864 69.0068 45.6357 69.1076 45.4698 69.1763C45.3039 69.2451 45.1261 69.2805 44.9465 69.2805C44.7669 69.2805 44.5891 69.2451 44.4232 69.1763C44.2573 69.1076 44.1066 69.0068 43.9797 68.8797L23.786 48.6852C23.6589 48.5583 23.5581 48.4075 23.4893 48.2417C23.4205 48.0758 23.3851 47.8979 23.3851 47.7184C23.3851 47.5388 23.4205 47.361 23.4893 47.1951C23.5581 47.0292 23.6589 46.8785 23.786 46.7516L29.3094 41.2273C29.5658 40.9709 29.9136 40.8269 30.2762 40.8269C30.6388 40.8269 30.9866 40.9709 31.243 41.2273C31.4994 41.4838 31.6435 41.8315 31.6435 42.1941C31.6435 42.5568 31.4994 42.9045 31.243 43.1609V43.1609Z" fill="url(#paint0_linear)"/>
<defs>
<linearGradient id="paint0_linear" x1="85.3391" y1="85.3391" x2="14.661" y2="14.6609" gradientUnits="userSpaceOnUse">
<stop stop-color="#F8A16B"/>
<stop offset="1" stop-color="#F37165"/>
</linearGradient>
</defs>
</svg>
