<svg width="534" height="575" viewBox="0 0 534 575" fill="none" xmlns="http://www.w3.org/2000/svg">
<path d="M45.8379 167.32L485.822 452.422" stroke="#4F5962" stroke-width="20"/>
<g clip-path="url(#clip0)">
<path d="M96.6773 30.378C94.1437 24.5405 90.5395 19.2611 85.9647 14.6865C81.3902 10.1119 76.1108 6.50771 70.2732 3.97399C64.1983 1.33699 57.8233 0 51.3256 0C44.8279 0 38.453 1.33699 32.378 3.97399C26.5405 6.50771 21.2611 10.1119 16.6865 14.6865C12.1119 19.2611 8.50771 24.5405 5.97399 30.378C3.33699 36.453 2 42.8279 2 49.3256C2 55.8233 3.33699 62.1983 5.97399 68.2732C8.50771 74.1108 12.1119 79.3902 16.6865 83.9647C21.2611 88.5393 26.5405 92.1435 32.378 94.6773C38.453 97.3143 44.8279 98.6513 51.3256 98.6513C57.8233 98.6513 64.1983 97.3143 70.2732 94.6773C76.1108 92.1435 81.3902 88.5393 85.9647 83.9647C90.5393 79.3902 94.1435 74.1108 96.6773 68.2732C99.3143 62.1983 100.651 55.8233 100.651 49.3256C100.651 42.8279 99.3143 36.453 96.6773 30.378ZM51.3256 94.7977C26.6773 94.7977 5.85356 73.974 5.85356 49.3256C5.85356 24.6773 26.6773 3.85356 51.3256 3.85356C75.974 3.85356 96.7977 24.6773 96.7977 49.3256C96.7977 73.974 75.974 94.7977 51.3256 94.7977Z" fill="url(#paint0_linear)"/>
<path d="M89.0857 33.4882C86.9913 28.622 84.0062 24.2312 80.2131 20.4383C76.42 16.6451 72.0295 13.6601 67.163 11.5655C62.1056 9.38882 56.7771 8.28516 51.3256 8.28516C43.9148 8.28516 36.1898 10.8158 28.9855 15.6033C28.0992 16.1923 27.8582 17.3882 28.4472 18.2744C29.0362 19.1607 30.2324 19.4015 31.1183 18.8127C37.6886 14.4466 44.6761 12.1387 51.3256 12.1387C71.483 12.1387 88.5125 29.1682 88.5125 49.3256C88.5125 69.483 71.483 86.5125 51.3256 86.5125C31.1682 86.5125 14.1387 69.483 14.1387 49.3256C14.1387 42.6774 16.446 35.6896 20.811 29.1181C21.3998 28.2316 21.1586 27.0358 20.2722 26.447C19.3855 25.8582 18.1898 26.0996 17.6011 26.9859C12.815 34.1915 10.2852 41.9164 10.2852 49.3256C10.2852 54.7771 11.3888 60.1056 13.5655 65.163C15.6599 70.0293 18.6451 74.42 22.4381 78.2129C26.2312 82.006 30.6218 84.9911 35.488 87.0855C40.5457 89.2624 45.8742 90.3661 51.3256 90.3661C56.7771 90.3661 62.1056 89.2624 67.163 87.0857C72.0293 84.9913 76.42 82.0062 80.2129 78.2131C84.006 74.42 86.9911 70.0295 89.0855 65.1632C91.2624 60.1056 92.3661 54.7771 92.3661 49.3256C92.3661 43.8742 91.2624 38.5457 89.0857 33.4882Z" fill="url(#paint1_linear)"/>
<path d="M61.4713 49.3257L68.9537 41.8433C70.3095 40.4885 71.0562 38.687 71.0562 36.7701C71.0562 34.8532 70.3095 33.0517 68.9542 31.6974C67.5987 30.342 65.7974 29.5955 63.8816 29.5955C61.9658 29.5955 60.1644 30.342 58.8089 31.6974L51.326 39.1804L43.843 31.6974C42.4875 30.342 40.6861 29.5955 38.7703 29.5955C36.8545 29.5955 35.0532 30.342 33.6982 31.6969C32.3424 33.0517 31.5957 34.8532 31.5957 36.7701C31.5957 38.687 32.3424 40.4885 33.6977 41.8427L41.1807 49.3257L33.6982 56.8081C32.3424 58.1629 31.5957 59.9644 31.5957 61.8813C31.5957 63.7982 32.3424 65.5998 33.6977 66.954C35.0532 68.3094 36.8547 69.056 38.7703 69.056C40.686 69.056 42.4875 68.3094 43.843 66.954L51.326 59.471L58.8089 66.954C60.1644 68.3094 61.9659 69.056 63.8816 69.056C65.7972 69.056 67.5988 68.3094 68.9537 66.9545C70.3095 65.5998 71.0562 63.7982 71.0562 61.8813C71.0562 59.9644 70.3095 58.1629 68.9542 56.8087L61.4713 49.3257ZM66.4176 64.4174C65.7396 65.0952 64.839 65.4686 63.8816 65.4686C62.9241 65.4686 62.0235 65.0952 61.3455 64.4174L52.5943 55.6661C52.244 55.3158 51.785 55.1408 51.326 55.1408C50.867 55.1408 50.4078 55.3158 50.0577 55.6661L41.3064 64.4174C40.6284 65.0952 39.7278 65.4686 38.7703 65.4686C37.8129 65.4686 36.9123 65.0952 36.2337 64.4168C35.5563 63.7397 35.183 62.8393 35.183 61.8813C35.183 60.9233 35.5563 60.0229 36.2343 59.3453L44.9855 50.594C45.686 49.8936 45.686 48.7578 44.9855 48.0574L36.2337 39.3056C35.5563 38.6285 35.183 37.7281 35.183 36.7701C35.183 35.8121 35.5563 34.9117 36.2343 34.234C36.9123 33.5562 37.8129 33.1828 38.7703 33.1828C39.7278 33.1828 40.6284 33.5562 41.3064 34.234L50.0577 42.9853C50.7581 43.6857 51.8938 43.6857 52.5944 42.9853L61.3457 34.2339C62.0235 33.5562 62.9241 33.1828 63.8816 33.1828C64.839 33.1828 65.7396 33.5562 66.4182 34.2346C67.0956 34.9117 67.4689 35.8121 67.4689 36.7701C67.4689 37.7281 67.0956 38.6285 66.4176 39.3062L57.6664 48.0576C56.9659 48.758 56.9659 49.8938 57.6664 50.5942L66.4182 59.346C67.0956 60.0229 67.4689 60.9233 67.4689 61.8813C67.4689 62.8393 67.0956 63.7397 66.4176 64.4174Z" fill="url(#paint2_linear)"/>
<path d="M23.9649 20.2312C22.9013 20.2312 22.0381 21.0944 22.0381 22.158C22.0381 23.2216 22.9013 24.0848 23.9649 24.0848C25.0285 24.0848 25.8916 23.2216 25.8916 22.158C25.8916 21.0944 25.0285 20.2312 23.9649 20.2312Z" fill="url(#paint3_linear)"/>
</g>
<g clip-path="url(#clip1)">
<path d="M332.707 353.464C331.586 350.354 328.157 348.741 325.046 349.862C321.935 350.983 320.322 354.414 321.443 357.523C321.47 357.599 321.499 357.676 321.531 357.752C326.991 372.001 327.386 382.897 322.609 387.688C316.814 393.471 302.378 391.663 283.985 382.861C259.361 370.076 236.979 353.374 217.713 333.407C170.815 286.504 151.464 240.48 163.433 228.512C167.252 225.496 172.216 224.337 176.976 225.35C180.273 225.593 183.143 223.116 183.386 219.818C183.62 216.631 181.31 213.821 178.137 213.436C169.813 211.963 161.272 214.39 154.967 220.022C133.03 241.953 166.564 299.161 209.247 341.85C229.469 362.777 252.968 380.267 278.818 393.633C283.499 395.875 288.324 397.804 293.259 399.41L250.72 415.539C193.916 393.945 153.025 343.586 143.549 283.558C143.037 280.291 139.972 278.058 136.706 278.571C133.439 279.083 131.206 282.147 131.718 285.414C132.658 291.401 133.916 297.388 135.454 303.244C149.242 355.481 185.555 398.878 234.543 421.66L164.528 448.152C164.207 447.618 163.803 447.137 163.331 446.728C145.537 432.441 134.372 411.489 132.437 388.752L129.659 355.111C129.44 351.852 126.62 349.387 123.36 349.605C123.298 349.61 123.236 349.614 123.175 349.621C119.879 349.883 117.419 352.768 117.681 356.063C117.681 356.076 117.683 356.092 117.684 356.106L120.51 389.736C122.615 414.039 133.952 436.61 152.189 452.811L102.243 471.718L111.224 434.86C112.008 431.646 110.038 428.407 106.824 427.623C103.609 426.839 100.369 428.809 99.5851 432.023L87.904 479.921C87.1167 483.133 89.082 486.374 92.2942 487.16C93.4721 487.45 94.7093 487.373 95.8431 486.944L317.369 403.123C317.721 402.95 318.056 402.741 318.364 402.501C323.157 401.764 327.602 399.547 331.074 396.16C337.006 390.226 342.114 377.994 332.707 353.464Z" fill="#4F5962"/>
<path d="M389.228 338.03C356.862 325.914 321.879 322.517 287.787 328.181L266.395 331.774C263.148 332.398 261.022 335.536 261.646 338.783C262.249 341.921 265.209 344.032 268.371 343.58L289.757 340.018C321.776 334.695 354.632 337.887 385.026 349.275C385.699 349.513 386.411 349.633 387.128 349.628C390.434 349.633 393.118 346.957 393.123 343.65C393.127 341.147 391.575 338.905 389.228 338.03Z" fill="#4F5962"/>
<path d="M410.511 245.294C409.089 242.308 405.516 241.04 402.53 242.462L276.798 302.334C273.813 303.755 272.544 307.327 273.965 310.313C273.965 310.314 273.966 310.315 273.966 310.315C275.387 313.3 278.959 314.569 281.946 313.148C281.946 313.148 281.946 313.147 281.947 313.147L407.679 253.275C410.664 251.853 411.933 248.28 410.511 245.294Z" fill="#4F5962"/>
<path d="M233.113 168.743C232.455 165.502 229.294 163.409 226.053 164.068C222.813 164.726 220.72 167.887 221.378 171.127C221.392 171.199 221.409 171.27 221.426 171.341C229.004 205.198 225.881 240.574 212.487 272.579L203.782 293.468C202.524 296.512 203.96 300 206.997 301.276C207.725 301.582 208.506 301.738 209.296 301.737C211.713 301.737 213.892 300.285 214.822 298.055L223.534 277.189C237.884 242.906 241.232 205.011 233.113 168.743Z" fill="#4F5962"/>
<path d="M417.026 343.633C407.107 343.633 399.066 351.675 399.066 361.595C399.066 371.514 407.107 379.557 417.026 379.557C426.947 379.557 434.988 371.514 434.988 361.595C434.988 351.675 426.947 343.633 417.026 343.633ZM417.026 367.581C413.72 367.581 411.04 364.901 411.04 361.595C411.04 358.289 413.72 355.607 417.026 355.607C420.335 355.607 423.014 358.289 423.014 361.595C423.014 364.901 420.335 367.581 417.026 367.581Z" fill="#F6B186"/>
<path d="M273.358 175.989C263.438 175.989 255.396 184.03 255.396 193.95C255.396 203.87 263.438 211.912 273.358 211.912C283.278 211.912 291.319 203.87 291.319 193.95C291.319 184.03 283.278 175.989 273.358 175.989ZM273.358 199.938C270.051 199.938 267.371 197.257 267.371 193.95C267.371 190.644 270.051 187.963 273.358 187.963C276.664 187.963 279.345 190.644 279.345 193.95C279.345 197.257 276.664 199.938 273.358 199.938Z" fill="#4F5962"/>
<path d="M219.424 152.055C226.037 152.055 231.398 146.693 231.398 140.08C231.398 133.467 226.037 128.106 219.424 128.106C212.81 128.106 207.449 133.467 207.449 140.08C207.449 146.693 212.81 152.055 219.424 152.055Z" fill="#F6B186"/>
<path d="M387.109 158.046C383.803 158.046 381.123 160.727 381.123 164.033V170.02C381.123 173.327 383.803 176.008 387.109 176.008C390.415 176.008 393.097 173.327 393.097 170.02V164.033C393.097 160.727 390.415 158.046 387.109 158.046Z" fill="#4F5962"/>
<path d="M387.109 128.106C383.803 128.106 381.123 130.786 381.123 134.093V140.08C381.123 143.387 383.803 146.067 387.109 146.067C390.415 146.067 393.097 143.387 393.097 140.08V134.093C393.097 130.786 390.415 128.106 387.109 128.106Z" fill="#4F5962"/>
<path d="M405.073 146.07H399.085C395.779 146.07 393.1 148.751 393.1 152.057C393.1 155.364 395.779 158.044 399.085 158.044H405.073C408.38 158.044 411.059 155.364 411.059 152.057C411.059 148.751 408.38 146.07 405.073 146.07Z" fill="#4F5962"/>
<path d="M375.115 146.07H369.127C365.821 146.07 363.139 148.751 363.139 152.057C363.139 155.364 365.821 158.044 369.127 158.044H375.115C378.421 158.044 381.101 155.364 381.101 152.057C381.101 148.751 378.421 146.07 375.115 146.07Z" fill="#4F5962"/>
<path d="M345.185 193.843H315.124C311.818 193.843 309.137 196.524 309.137 199.83V229.892C309.137 233.198 311.818 235.879 315.124 235.879H345.185C348.491 235.879 351.173 233.198 351.173 229.892V199.83C351.173 196.524 348.491 193.843 345.185 193.843ZM339.199 223.905H321.112V205.817H339.199V223.905Z" fill="#F6B186"/>
<path d="M301.583 243.839C299.385 241.492 295.726 241.301 293.296 243.404L233.423 297.289C230.967 299.502 230.769 303.286 232.98 305.743C235.193 308.2 238.977 308.398 241.434 306.186L301.307 252.301C303.72 250.04 303.844 246.252 301.583 243.839Z" fill="#4F5962"/>
<path d="M411.062 265.81C407.756 265.81 405.076 268.49 405.076 271.797V277.784C405.076 281.09 407.756 283.771 411.062 283.771C414.368 283.771 417.05 281.09 417.05 277.784V271.797C417.05 268.49 414.368 265.81 411.062 265.81Z" fill="#4F5962"/>
<path d="M436.435 264.792L432.201 260.559C429.823 258.261 426.034 258.327 423.736 260.706C421.494 263.026 421.494 266.704 423.736 269.025L427.967 273.258C430.346 275.556 434.137 275.49 436.435 273.111C438.677 270.791 438.677 267.112 436.435 264.792Z" fill="#4F5962"/>
<path d="M441.001 241.857H435.013C431.707 241.857 429.027 244.538 429.027 247.845C429.027 251.151 431.707 253.832 435.013 253.832H441.001C444.307 253.832 446.989 251.151 446.989 247.845C446.989 244.538 444.307 241.857 441.001 241.857Z" fill="#F6B186"/>
<path d="M436.314 222.459C433.996 220.218 430.317 220.218 427.997 222.459L423.763 226.692C421.425 229.03 421.425 232.821 423.765 235.159C424.886 236.281 426.409 236.912 427.997 236.912C429.585 236.912 431.106 236.28 432.229 235.158L436.462 230.925C438.76 228.546 438.693 224.756 436.314 222.459Z" fill="#4F5962"/>
<path d="M411.062 211.917C407.756 211.917 405.076 214.598 405.076 217.905V223.892C405.076 227.198 407.756 229.879 411.062 229.879C414.368 229.879 417.05 227.198 417.05 223.892V217.905C417.05 214.598 414.368 211.917 411.062 211.917Z" fill="#4F5962"/>
<path d="M398.357 226.692L394.123 222.459C391.745 220.162 387.955 220.227 385.658 222.606C383.416 224.926 383.416 228.604 385.658 230.925L389.892 235.158C392.27 237.456 396.059 237.39 398.357 235.011C400.599 232.69 400.599 229.012 398.357 226.692Z" fill="#4F5962"/>
<path d="M426.745 428.228H426.72L424.254 424.529C410.423 403.845 388.674 389.78 364.135 385.654C360.863 385.186 357.831 387.462 357.363 390.734C356.912 393.897 359.023 396.857 362.161 397.459C379.858 400.464 395.987 409.455 407.849 422.929C397.876 424.724 389.154 430.712 383.901 439.378C377.452 450.925 381.587 465.513 393.135 471.961C404.684 478.41 419.272 474.275 425.721 462.725C428.185 457.973 429.514 452.712 429.606 447.358C435.976 456.609 436.486 468.693 430.918 478.448C429.231 481.294 430.168 484.966 433.011 486.653C435.857 488.34 439.529 487.403 441.216 484.557C441.27 484.468 441.322 484.375 441.371 484.281C452.334 464.7 445.877 439.957 426.745 428.228ZM415.279 456.883C412.082 462.674 404.798 464.776 399.01 461.58C393.22 458.386 391.115 451.1 394.311 445.312C394.329 445.278 394.347 445.247 394.365 445.215C397.898 439.429 403.857 435.55 410.58 434.665C411.62 434.636 412.651 434.876 413.572 435.359C418.625 438.178 418.895 450.406 415.279 456.883Z" fill="#4F5962"/>
<line x1="775.738" y1="158.844" x2="454.135" y2="494.258" stroke="#4F5962" stroke-width="20"/>
</g>
<circle cx="267.372" cy="307.792" r="256.628" stroke="#4F5962" stroke-width="20"/>
<defs>
<linearGradient id="paint0_linear" x1="51.3256" y1="0" x2="51.3256" y2="98.6513" gradientUnits="userSpaceOnUse">
<stop stop-color="#F8A16B"/>
<stop offset="1" stop-color="#F37165"/>
</linearGradient>
<linearGradient id="paint1_linear" x1="51.3256" y1="8.28516" x2="51.3256" y2="90.3661" gradientUnits="userSpaceOnUse">
<stop stop-color="#F8A16B"/>
<stop offset="1" stop-color="#F37165"/>
</linearGradient>
<linearGradient id="paint2_linear" x1="51.326" y1="29.5955" x2="51.326" y2="69.056" gradientUnits="userSpaceOnUse">
<stop stop-color="#F8A16B"/>
<stop offset="1" stop-color="#F37165"/>
</linearGradient>
<linearGradient id="paint3_linear" x1="23.9649" y1="20.2312" x2="23.9649" y2="24.0848" gradientUnits="userSpaceOnUse">
<stop stop-color="#F8A16B"/>
<stop offset="1" stop-color="#F37165"/>
</linearGradient>
<clipPath id="clip0">
<rect width="98.6513" height="98.6513" fill="white" transform="translate(2)"/>
</clipPath>
<clipPath id="clip1">
<rect width="359.372" height="359.372" fill="white" transform="translate(87.6855 128.106)"/>
</clipPath>
</defs>
</svg>
