<svg width="512" height="462" viewBox="0 0 512 462" fill="none" xmlns="http://www.w3.org/2000/svg">
<path d="M247.394 147.399H247.38C241.829 147.399 237.329 151.899 237.319 157.446L237.287 181.048C237.242 206.065 219.506 227.56 194.954 232.349L195.118 116.409C195.128 110.854 190.632 106.344 185.071 106.337H185.06C179.509 106.337 175.006 110.83 174.999 116.384L174.817 243.343C174.814 248.898 179.313 253.408 184.868 253.418H184.973C224.938 253.418 257.357 221.048 257.409 181.079L257.444 157.474C257.455 151.92 252.952 147.41 247.394 147.399Z" fill="#F6B186"/>
<path d="M280.375 126.543H280.35C271.4 126.536 264.137 133.789 264.134 142.739C264.127 151.693 271.379 158.955 280.329 158.962H280.357C289.308 158.966 296.57 151.714 296.574 142.763C296.577 133.81 289.325 126.55 280.375 126.543ZM280.35 146.665C278.191 146.662 276.438 144.905 276.445 142.749C276.445 140.587 278.198 138.837 280.361 138.84C282.523 138.84 284.27 140.59 284.27 142.753C284.27 144.915 282.513 146.665 280.35 146.665Z" fill="#F6B186"/>
<path d="M508.19 125.244C492.99 49.9109 438.528 1.23319 369.441 1.23319C333.315 1.23319 294.241 15.1196 256.051 41.4602C217.34 13.9423 178.958 0 141.882 0C72.3934 0 18.1647 49.2122 3.72625 125.334C-17.3602 235.245 49.4031 381.072 246.091 459.112C246.266 459.182 246.44 459.245 246.619 459.304C252.634 461.638 259.3 461.638 265.316 459.304C265.518 459.242 265.717 459.165 265.913 459.084C356.082 422.546 426.042 368.981 468.218 304.153C505.322 247.13 519.527 183.616 508.204 125.31C508.201 125.292 508.197 125.265 508.19 125.244V125.244ZM127.422 367.78C135.555 364.789 142.867 359.93 148.778 353.593L247.454 353.718L247.412 432.932C247.412 434.98 248.033 436.978 249.204 438.665C200.208 418.766 159.859 394.539 127.422 367.78ZM409.86 188.07L393.626 173.963L403.548 173.974C407.048 173.988 409.871 176.821 409.871 180.314L409.86 188.07ZM362.908 173.914L409.825 214.697L409.808 227.123C409.797 233.044 404.994 237.837 399.073 237.837H399.059L306.538 237.708C291.464 237.691 276.701 233.422 263.943 225.397C259.24 222.498 253.088 223.933 250.147 228.608C247.209 233.278 248.585 239.448 253.232 242.431C263.894 249.128 275.722 253.767 288.103 256.091C283.834 259.154 279.817 262.56 276.089 266.267C265.619 276.674 257.665 289.334 252.826 303.28L163.66 303.154L163.925 122.351C163.943 109.816 174.112 99.6645 186.643 99.6645H186.671L278.849 99.7938C282.318 99.8043 285.571 101.485 287.583 104.314L330.049 164.094C334.409 170.232 341.469 173.883 348.998 173.897L362.908 173.914ZM163.143 323.277L248.201 323.399C247.796 326.78 247.558 330.187 247.502 333.6L160.778 333.488C161.889 330.166 162.685 326.746 163.143 323.277V323.277ZM451.352 293.184C412.725 352.555 348.984 402.152 266.671 436.995C267.24 435.72 267.53 434.34 267.53 432.943L267.558 388.51C279.873 400.58 297.497 405.533 314.301 401.645L324.194 399.36C329.609 398.11 332.987 392.709 331.74 387.294L329.455 377.401C323.17 350.155 295.988 333.167 268.746 339.448L267.583 339.717V335.126C267.646 292.496 302.22 257.967 344.851 257.967H344.98C345.382 257.963 345.777 257.939 346.175 257.89L399.024 257.963H399.069C416.086 257.946 429.881 244.167 429.923 227.158L429.99 180.346C429.997 165.743 418.182 153.89 403.576 153.855L349.025 153.775C348.736 153.775 348.446 153.736 348.166 153.652C347.478 153.457 346.874 153.027 346.454 152.444L303.988 92.6602C298.206 84.5344 288.854 79.696 278.881 79.6715L186.706 79.5423H186.64C163.006 79.5458 143.838 98.6864 143.799 122.316L143.513 316.07C143.457 335.353 127.82 350.966 108.537 350.99C108.498 350.99 108.46 350.99 108.421 350.99C34.7166 281.072 10.3813 197.436 23.4922 129.093C29.7419 96.1606 44.2083 68.5519 65.3332 49.2471C86.1925 30.1939 112.666 20.1188 141.882 20.1188C176.421 20.1188 212.785 34.1799 249.951 61.9109C253.48 64.5414 258.315 64.5729 261.878 61.9877C298.5 35.4026 335.694 21.3554 369.438 21.3554C398.584 21.3554 425.095 31.3851 446.101 50.365C467.258 69.4812 481.906 96.7335 488.459 129.188C498.765 182.333 485.584 240.569 451.352 293.184V293.184ZM273.172 359.07L273.27 359.046C289.679 355.287 306.042 365.512 309.85 381.914L309.871 382.012L309.777 382.033C293.364 385.792 277.005 375.566 273.19 359.165L273.172 359.07Z" fill="#4F5962"/>
<g clip-path="url(#clip0)">
<path d="M92.2339 61.147C83.3802 61.147 74.7253 63.7724 67.3637 68.6913C60.0021 73.6101 54.2645 80.6015 50.8763 88.7813C47.4881 96.961 46.6016 105.962 48.3289 114.645C50.0562 123.329 54.3197 131.305 60.5802 137.566C66.8407 143.826 74.8171 148.09 83.5007 149.817C92.1843 151.544 101.185 150.658 109.365 147.27C117.545 143.882 124.536 138.144 129.455 130.782C134.374 123.421 136.999 114.766 136.999 105.912C136.986 94.0438 132.265 82.6653 123.873 74.2731C115.481 65.8809 104.102 61.1603 92.2339 61.147V61.147ZM92.2339 148.229C83.8644 148.229 75.6828 145.747 68.7238 141.098C61.7648 136.448 56.3409 129.839 53.1381 122.106C49.9352 114.374 49.0972 105.865 50.73 97.6565C52.3628 89.4478 56.3931 81.9076 62.3112 75.9895C68.2294 70.0713 75.7696 66.041 83.9783 64.4082C92.187 62.7754 100.696 63.6134 108.428 66.8163C116.16 70.0191 122.769 75.443 127.419 82.402C132.069 89.361 134.551 97.5426 134.551 105.912C134.538 117.131 130.076 127.888 122.143 135.821C114.209 143.754 103.453 148.216 92.2339 148.229ZM119.215 130.568C119.33 130.68 119.422 130.814 119.485 130.962C119.548 131.11 119.582 131.269 119.583 131.43C119.585 131.59 119.555 131.75 119.495 131.899C119.435 132.048 119.347 132.184 119.234 132.299C118.48 133.069 117.686 133.817 116.873 134.518C116.627 134.726 116.308 134.829 115.986 134.804C115.664 134.779 115.366 134.627 115.155 134.383C114.944 134.138 114.839 133.82 114.861 133.498C114.883 133.176 115.032 132.876 115.275 132.664C116.035 132.008 116.778 131.309 117.484 130.588C117.597 130.473 117.73 130.381 117.878 130.318C118.026 130.255 118.185 130.221 118.346 130.219C118.506 130.217 118.666 130.247 118.815 130.307C118.965 130.367 119.101 130.456 119.215 130.568V130.568ZM130.005 105.912C130.005 112.438 128.312 118.851 125.092 124.527C124.931 124.809 124.665 125.016 124.352 125.102C124.039 125.188 123.705 125.146 123.422 124.986C123.14 124.825 122.933 124.559 122.847 124.246C122.761 123.933 122.803 123.599 122.963 123.317C127.115 115.982 128.507 107.404 126.887 99.1327C125.267 90.8614 120.742 83.4422 114.13 78.2158C107.517 72.9894 99.2536 70.3004 90.8318 70.6346C82.4099 70.9688 74.3854 74.3042 68.2079 80.0382C62.0305 85.7721 58.1077 93.5265 57.1482 101.9C56.1887 110.274 58.2558 118.715 62.9761 125.697C67.6964 132.68 74.7585 137.744 82.8865 139.975C91.0144 142.205 99.6721 141.455 107.295 137.86C107.589 137.721 107.925 137.704 108.231 137.813C108.383 137.867 108.522 137.95 108.641 138.058C108.76 138.166 108.857 138.296 108.926 138.441C108.995 138.587 109.035 138.744 109.043 138.905C109.051 139.065 109.027 139.226 108.973 139.377C108.919 139.529 108.836 139.668 108.728 139.787C108.62 139.906 108.49 140.003 108.345 140.072C103.311 142.462 97.8062 143.696 92.2339 143.683C84.7636 143.683 77.4611 141.468 71.2497 137.317C65.0384 133.167 60.1972 127.268 57.3384 120.366C54.4797 113.465 53.7317 105.87 55.1891 98.5435C56.6465 91.2167 60.2438 84.4866 65.5261 79.2043C70.8084 73.922 77.5385 70.3247 84.8653 68.8673C92.192 67.4099 99.7865 68.1579 106.688 71.0166C113.59 73.8754 119.489 78.7166 123.639 84.9279C127.789 91.1393 130.005 98.4418 130.005 105.912V105.912ZM75.4407 99.7891L71.3608 103.87L87.7092 120.219L113.107 94.8209L109.89 91.6034L88.5751 112.923C88.3413 113.144 88.0315 113.268 87.7095 113.268C87.3875 113.268 87.0778 113.144 86.8439 112.923L79.4766 105.555C79.247 105.326 79.118 105.014 79.118 104.69C79.118 104.365 79.247 104.054 79.4766 103.824C79.7061 103.595 80.0175 103.466 80.3421 103.466C80.6668 103.466 80.9782 103.595 81.2077 103.824L87.7127 110.329L109.027 89.0091C109.141 88.8953 109.276 88.8051 109.424 88.7435C109.573 88.6819 109.732 88.6502 109.893 88.6502C110.054 88.6502 110.213 88.6819 110.361 88.7435C110.51 88.8051 110.645 88.8953 110.758 89.0091L115.703 93.9549C115.817 94.0686 115.907 94.2035 115.969 94.352C116.031 94.5005 116.062 94.6597 116.062 94.8205C116.062 94.9813 116.031 95.1405 115.969 95.289C115.907 95.4376 115.817 95.5725 115.703 95.6861L88.5751 122.815C88.4615 122.929 88.3265 123.019 88.178 123.081C88.0295 123.142 87.8703 123.174 87.7095 123.174C87.5487 123.174 87.3895 123.142 87.241 123.081C87.0925 123.019 86.9576 122.929 86.8439 122.815L68.7644 104.735C68.6506 104.621 68.5604 104.486 68.4988 104.338C68.4372 104.189 68.4056 104.03 68.4056 103.869C68.4056 103.709 68.4372 103.549 68.4988 103.401C68.5604 103.252 68.6506 103.117 68.7644 103.004L73.7096 98.058C73.9391 97.8284 74.2505 97.6994 74.5751 97.6994C74.8998 97.6994 75.2111 97.8284 75.4407 98.058C75.6703 98.2875 75.7992 98.5989 75.7992 98.9235C75.7992 99.2482 75.6703 99.5595 75.4407 99.7891V99.7891Z" fill="url(#paint0_linear)"/>
</g>
<defs>
<linearGradient id="paint0_linear" x1="123.873" y1="137.551" x2="60.5948" y2="74.273" gradientUnits="userSpaceOnUse">
<stop stop-color="#F8A16B"/>
<stop offset="1" stop-color="#F37165"/>
</linearGradient>
<clipPath id="clip0">
<rect width="89.5303" height="89.5303" fill="white" transform="translate(47.4688 61.147)"/>
</clipPath>
</defs>
</svg>
