<svg width="512" height="512" viewBox="0 0 512 512" fill="none" xmlns="http://www.w3.org/2000/svg">
<path d="M477.426 327.292H27.0242C20.63 327.292 15.4424 332.48 15.4424 338.874V416.086C15.4424 422.48 20.63 427.668 27.0242 427.668H477.426C483.82 427.668 489.008 422.48 489.008 416.086V338.874C489.008 332.48 483.82 327.292 477.426 327.292ZM38.6059 350.456H410.509V404.504H38.6059V350.456ZM465.845 404.504H433.673V350.456H465.845V404.504Z" fill="#4F5962"/>
<path d="M477.426 220.483C471.032 220.483 465.845 225.67 465.845 232.064V284.826C465.845 291.22 471.032 296.408 477.426 296.408C483.821 296.408 489.008 291.22 489.008 284.826V232.064C489.008 225.67 483.821 220.483 477.426 220.483Z" fill="#F6B186"/>
<path d="M423.378 239.786C423.378 246.18 428.566 251.367 434.96 251.367C441.354 251.367 446.541 246.18 446.541 239.786V181.877C446.541 175.483 441.354 170.295 434.96 170.295C428.566 170.295 423.378 175.483 423.378 181.877V239.786Z" fill="#F6B186"/>
<path d="M483.861 118.82C477.467 118.82 472.279 124.008 472.279 130.402V176.729C472.279 183.123 477.467 188.311 483.861 188.311C490.255 188.311 495.443 183.123 495.443 176.729V130.402C495.443 124.008 490.255 118.82 483.861 118.82Z" fill="#F6B186"/>
<path d="M434.96 141.984C441.354 141.984 446.541 136.796 446.541 130.402V87.9358C446.541 81.5417 441.354 76.354 434.96 76.354C428.566 76.354 423.378 81.5417 423.378 87.9358V130.402C423.378 136.796 428.566 141.984 434.96 141.984Z" fill="#F6B186"/>
<g clip-path="url(#clip0)">
<path d="M66.9622 15.4526C56.7747 15.4526 46.8159 18.4736 38.3453 24.1335C29.8747 29.7934 23.2726 37.838 19.374 47.25C15.4754 56.6621 14.4554 67.0188 16.4429 77.0106C18.4304 87.0024 23.3361 96.1804 30.5398 103.384C37.7435 110.588 46.9215 115.494 56.9133 117.481C66.9051 119.469 77.2618 118.448 86.6739 114.55C96.0859 110.651 104.131 104.049 109.79 95.5786C115.45 87.108 118.471 77.1492 118.471 66.9617C118.456 53.3053 113.024 40.2127 103.368 30.5562C93.7112 20.8997 80.6185 15.468 66.9622 15.4526V15.4526ZM66.9622 115.654C57.3318 115.654 47.9177 112.798 39.9103 107.448C31.9029 102.097 25.6619 94.4927 21.9765 85.5954C18.2911 76.698 17.3269 66.9077 19.2057 57.4623C21.0845 48.017 25.7219 39.3409 32.5317 32.5311C39.3414 25.7214 48.0175 21.0839 57.4628 19.2051C66.9082 17.3263 76.6986 18.2906 85.5959 21.976C94.4932 25.6614 102.098 31.9024 107.448 39.9098C112.799 47.9172 115.654 57.3313 115.654 66.9617C115.64 79.8711 110.505 92.2476 101.377 101.376C92.2482 110.504 79.8717 115.639 66.9622 115.654ZM98.0085 95.3319C98.1407 95.4613 98.2462 95.6154 98.3188 95.7855C98.3915 95.9556 98.4299 96.1384 98.432 96.3234C98.434 96.5084 98.3995 96.6919 98.3306 96.8636C98.2617 97.0353 98.1596 97.1917 98.0302 97.3239C97.1626 98.2092 96.2483 99.0703 95.3131 99.8768C95.0297 100.117 94.6629 100.235 94.2927 100.206C93.9225 100.177 93.5787 100.003 93.3363 99.7213C93.0938 99.44 92.9723 99.0744 92.9981 98.7039C93.0239 98.3334 93.195 97.9881 93.4741 97.7432C94.3489 96.9891 95.2037 96.185 96.0165 95.3553C96.1457 95.2228 96.2998 95.1171 96.4698 95.0443C96.6399 94.9714 96.8227 94.9328 97.0077 94.9306C97.1927 94.9285 97.3763 94.9628 97.548 95.0316C97.7198 95.1005 97.8762 95.2025 98.0085 95.3319V95.3319ZM110.423 66.9617C110.423 74.4701 108.475 81.8502 104.77 88.3806C104.585 88.7054 104.279 88.9435 103.919 89.0426C103.559 89.1417 103.174 89.0936 102.849 88.909C102.524 88.7243 102.286 88.4183 102.187 88.058C102.088 87.6978 102.136 87.313 102.321 86.9883C107.098 78.5485 108.7 68.6782 106.836 59.1609C104.972 49.6435 99.765 41.1067 92.1565 35.0929C84.5479 29.0791 75.0394 25.985 65.3488 26.3696C55.6582 26.7541 46.4247 30.592 39.3167 37.1898C32.2086 43.7876 27.6948 52.7101 26.5908 62.3453C25.4867 71.9805 27.8653 81.6928 33.2967 89.7274C38.7281 97.762 46.8541 103.589 56.2065 106.156C65.5589 108.722 75.521 107.859 84.2926 103.722C84.6302 103.562 85.0175 103.543 85.3694 103.668C85.5437 103.73 85.704 103.826 85.8412 103.95C85.9784 104.074 86.0898 104.224 86.169 104.391C86.2483 104.559 86.2939 104.74 86.3032 104.925C86.3124 105.109 86.2852 105.294 86.2231 105.468C86.1609 105.643 86.0651 105.803 85.941 105.94C85.8169 106.077 85.667 106.189 85.4998 106.268C79.7077 109.018 73.3739 110.437 66.9622 110.422C58.3665 110.422 49.9638 107.874 42.8167 103.098C35.6696 98.3225 30.0991 91.5348 26.8097 83.5934C23.5202 75.652 22.6596 66.9135 24.3365 58.4829C26.0135 50.0524 30.1527 42.3084 36.2308 36.2303C42.3089 30.1522 50.0529 26.013 58.4834 24.336C66.914 22.6591 75.6525 23.5197 83.5939 26.8092C91.5353 30.0986 98.323 35.6691 103.099 42.8162C107.874 49.9633 110.423 58.366 110.423 66.9617V66.9617ZM47.6391 59.9162L42.9445 64.6116L61.7558 83.4237L90.9799 54.1995L87.2777 50.4973L62.7521 75.0285C62.4831 75.2832 62.1267 75.4252 61.7562 75.4252C61.3857 75.4252 61.0292 75.2832 60.7602 75.0285L52.2829 66.5512C52.0188 66.2871 51.8704 65.9288 51.8704 65.5553C51.8704 65.1817 52.0188 64.8234 52.2829 64.5593C52.5471 64.2951 52.9053 64.1467 53.2789 64.1467C53.6525 64.1467 54.0107 64.2951 54.2749 64.5593L61.7598 72.0442L86.2853 47.5122C86.4161 47.3813 86.5713 47.2775 86.7422 47.2066C86.9131 47.1358 87.0963 47.0993 87.2813 47.0993C87.4663 47.0993 87.6495 47.1358 87.8204 47.2066C87.9913 47.2775 88.1466 47.3813 88.2773 47.5122L93.9674 53.2031C94.0983 53.3339 94.2022 53.4891 94.273 53.66C94.3439 53.8309 94.3803 54.0141 94.3803 54.1991C94.3803 54.3841 94.3439 54.5673 94.273 54.7382C94.2022 54.9091 94.0983 55.0644 93.9674 55.1951L62.7521 86.4112C62.6214 86.5421 62.4662 86.6459 62.2953 86.7168C62.1244 86.7876 61.9412 86.8241 61.7562 86.8241C61.5712 86.8241 61.388 86.7876 61.2171 86.7168C61.0462 86.6459 60.8909 86.5421 60.7602 86.4112L39.957 65.6072C39.8261 65.4764 39.7222 65.3212 39.6514 65.1503C39.5805 64.9794 39.5441 64.7962 39.5441 64.6112C39.5441 64.4262 39.5805 64.243 39.6514 64.0721C39.7222 63.9012 39.8261 63.7459 39.957 63.6152L45.6471 57.9243C45.9113 57.6601 46.2695 57.5117 46.6431 57.5117C47.0167 57.5117 47.3749 57.6601 47.6391 57.9243C47.9032 58.1884 48.0516 58.5467 48.0516 58.9202C48.0516 59.2938 47.9032 59.6521 47.6391 59.9162V59.9162Z" fill="url(#paint0_linear)"/>
</g>
<defs>
<linearGradient id="paint0_linear" x1="103.368" y1="103.367" x2="30.5566" y2="30.5561" gradientUnits="userSpaceOnUse">
<stop stop-color="#F8A16B"/>
<stop offset="1" stop-color="#F37165"/>
</linearGradient>
<clipPath id="clip0">
<rect width="103.018" height="103.018" fill="white" transform="translate(15.4531 15.4526)"/>
</clipPath>
</defs>
</svg>
